<svg xmlns="http://www.w3.org/2000/svg" xmlns:xlink="http://www.w3.org/1999/xlink" data-name="Layer 1" width="932.16127" height="646.62262" viewBox="0 0 932.16127 646.62262"><defs><linearGradient id="ae928bff-3575-4039-8931-1ea5500585a1-321" x1="10.0701" y1="883.09804" x2="23.03018" y2="883.09804" gradientTransform="matrix(46.94042, 0, 0, -24.44727, -11.22942, 22034.26197)" gradientUnits="userSpaceOnUse"><stop offset="0" stop-color="#2d6dd0"/><stop offset="0.99" stop-color="#6c139c"/></linearGradient><linearGradient id="ab16e020-95e2-4019-a7f2-352f369779da-322" x1="14.38337" y1="889.08946" x2="32.06147" y2="889.08946" gradientTransform="matrix(34.41098, 0, 0, -37.39629, -33.41135, 33695.05684)" xlink:href="#ae928bff-3575-4039-8931-1ea5500585a1-321"/></defs><path id="a85aa9a8-70f8-49a0-91e4-e8ca3e9b5e25-323" data-name="Path 1" d="M1060.28855,356.52229h-31.91173a12.88046,12.88046,0,0,0-11.36087,8.03221l-7.23623,20.84034-5.789,16.13678-8.1046,23.373a41.24885,41.24885,0,0,1-3.401,8.03222,38.27962,38.27962,0,0,1-3.47336-8.10458L981.269,401.604c-1.5196-4.48646-4.05227-11.72268-5.64425-16.20914l-7.23623-20.84034a12.88053,12.88053,0,0,0-11.43325-8.03221H834.22884a8.53874,8.53874,0,0,0-8.53875,8.53874h0v48.69982a8.61111,8.61111,0,0,1-8.6111,8.61111H781.47673a8.68349,8.68349,0,0,1-8.6111-8.61111V365.061a8.53873,8.53873,0,0,0-8.17694-8.53874H735.02017a8.61111,8.61111,0,0,0-8.6111,8.53874V387.5657c15.775,20.11671,15.775,56.732,0,111.29316v25.97806a8.6111,8.6111,0,0,0,8.6111,8.53875h29.66852a8.53875,8.53875,0,0,0,8.53875-8.53875h0V471.723a8.6111,8.6111,0,0,1,8.24929-8.61112H817.079a8.53876,8.53876,0,0,1,8.61079,8.46608l.00031.07267v53.11391a8.53876,8.53876,0,0,0,8.53875,8.53875h100.077a8.53876,8.53876,0,0,0,8.53872-8.53875V502.76643a8.53876,8.53876,0,0,0-8.53875-8.53875H881.19193a8.61112,8.61112,0,0,1-8.53875-8.61111V471.14411a8.61112,8.61112,0,0,1,8.53875-8.61111h32.05649a8.53875,8.53875,0,0,0,8.53875-8.53875h0V431.99614a8.53876,8.53876,0,0,0-8.53875-8.53875H881.19193a8.61112,8.61112,0,0,1-8.53875-8.61111V404.28139a8.53875,8.53875,0,0,1,8.46607-8.61081l.07268-.0003H924.6093a14.47247,14.47247,0,0,1,12.08448,7.81512l28.14892,61.14611a45.51626,45.51626,0,0,1,3.61811,16.35388v43.85153a8.53876,8.53876,0,0,0,8.53875,8.53875h29.66852a8.53873,8.53873,0,0,0,8.6108-8.466l.00033-.0727V480.98539a47.035,47.035,0,0,1,3.54574-16.35388L1065.28157,364.265a5.06537,5.06537,0,0,0-4.993-7.74276Z" transform="translate(-133.91937 -126.68869)" fill="url(#ae928bff-3575-4039-8931-1ea5500585a1-321)"/><path id="ab32811a-36b8-48f6-a9b0-164845ebe4b4-324" data-name="Path 2" d="M685.09019,386.625A64.54721,64.54721,0,0,0,655.277,404.35375c-9.47947-33.28665-29.88563-83.65078-49.78525-91.90008a14.47246,14.47246,0,0,0-13.31466.57889c-12.44632,7.23623-20.55089,30.53688-13.45938,74.67787-27.35294-50.07469-36.90476-50.00233-41.31886-50.07469a10.782,10.782,0,0,0-9.84127,6.72969c-2.96685,6.585-8.90056,27.13585,5.5719,71.34919-17.43931-23.87955-22.79412-26.91876-28.94491-26.62931a10.9267,10.9267,0,0,0-9.26237,6.29551c-5.21009,9.84128-4.63119,34.58917,11.578,71.49393a33.21434,33.21434,0,0,0-19.972-8.24929,11.93977,11.93977,0,0,0-9.62418,6.1508c-6.585,12.08449,7.23623,46.0224,24.31373,69.03359,13.82119,18.88656,41.53594,47.90382,81.76936,47.90382a90.74358,90.74358,0,0,0,16.788-1.592,7.37372,7.37372,0,0,0-2.56166-14.52325q-.13068.02307-.26046.0508c-33.43137,6.51261-58.61344-11.86741-73.88188-28.366-22.79413-24.67552-32.78012-54.34406-33.359-63.38934,4.77591,1.95378,18.52474,10.05835,45.29879,44.35806a7.33942,7.33942,0,1,0,11.93977-8.53875h0c-37.62838-57.09382-41.31886-91.683-40.0887-103.33331,11.07143,11.28851,38.71381,52.67974,59.55415,83.94024a7.35924,7.35924,0,0,0,12.591-7.598C535.58974,403.1236,537.10934,366.94246,539.642,354.7856c6.5126,6.585,23.80718,29.5238,60.2054,108.5434a7.37371,7.37371,0,0,0,13.6041-5.64426c-35.31277-95.88-19.972-128.37067-14.11063-132.06114,7.598,0,28.94491,36.61531,42.25957,84.59149.796,2.96685,1.592,5.86135,2.31559,8.68347a46.16679,46.16679,0,0,0-4.34174,10.42017c-7.23623,26.557-14.47246,86.83473-.50654,103.40568a13.45938,13.45938,0,0,0,11.7227,4.993,19.03128,19.03128,0,0,0,13.89355-8.53875c12.95286-18.88656,5.35481-66.28384-4.993-107.74742a54.48871,54.48871,0,0,1,28.94491-20.768,14.47244,14.47244,0,0,1,14.47246,3.47338c5.93371,6.65733,16.28149,31.55-15.12372,119.32538a7.36959,7.36959,0,0,0,13.89356,4.92064c25.03734-69.97432,28.94491-115.056,12.22921-134.01493A28.51075,28.51075,0,0,0,685.09019,386.625Zm-32.563,134.37674a4.63108,4.63108,0,0,1-2.46032,2.09851c-5.42717-6.44024-5.42717-44.57516.50654-75.83565C661.78955,501.3192,655.27693,517.16652,652.52717,521.00173Z" transform="translate(-133.91937 -126.68869)" fill="url(#ab16e020-95e2-4019-a7f2-352f369779da-322)"/></svg>